PathFileType	4	(X/Y/Z)	Walk6.trc
DataRate	CameraRate	NumFrames	NumMarkers	Units	OrigDataRate	OrigDataStartFrame	OrigNumFrames
200.000000	200.000000	4	61	mm	200.000000	239	449
Frame#	Times		LFHD		RFHD		CLAV		STRN		LASI		RASI		RACR1		RUA1		RFA1		RWRU		RCAR		LACR1		LUA1		LFA1		LWRU		LCAR		RTH3		RTH2		RTH4		RTB3		RTB4		LTH1		LTH3		LTH2		LTH4		LLFC		LTB1		LTB2		LTB4		RTH1		RTB1		RMT5		RMFC		RToe		RMT1		RMMAL		LElbow		RTB2		LBHD		RLFC		LWRR		RLMAL		RCAL		RWRR		RElbow		T10		RBack		RPSI		RBHD		LTB3		LMFC		LPSI		LToe		LLMAL		C7		RElbowM		LCAL		LElbowM		LMT5		LMT1		LMMAL
			X1	Y1	Z1	X2	Y2	Z2	X3	Y3	Z3	X4	Y4	Z4	X5	Y5	Z5	X6	Y6	Z6	X7	Y7	Z7	X8	Y8	Z8	X9	Y9	Z9	X10	Y10	Z10	X11	Y11	Z11	X12	Y12	Z12	X13	Y13	Z13	X14	Y14	Z14	X15	Y15	Z15	X16	Y16	Z16	X17	Y17	Z17	X18	Y18	Z18	X19	Y19	Z19	X20	Y20	Z20	X21	Y21	Z21	X22	Y22	Z22	X23	Y23	Z23	X24	Y24	Z24	X25	Y25	Z25	X26	Y26	Z26	X27	Y27	Z27	X28	Y28	Z28	X29	Y29	Z29	X30	Y30	Z30	X31	Y31	Z31	X32	Y32	Z32	X33	Y33	Z33	X34	Y34	Z34	X35	Y35	Z35	X36	Y36	Z36	X37	Y37	Z37	X38	Y38	Z38	X39	Y39	Z39	X40	Y40	Z40	X41	Y41	Z41	X42	Y42	Z42	X43	Y43	Z43	X44	Y44	Z44	X45	Y45	Z45	X46	Y46	Z46	X47	Y47	Z47	X48	Y48	Z48	X49	Y49	Z49	X50	Y50	Z50	X51	Y51	Z51	X52	Y52	Z52	X53	Y53	Z53	X54	Y54	Z54	X55	Y55	Z55	X56	Y56	Z56	X57	Y57	Z57	X58	Y58	Z58	X59	Y59	Z59	X60	Y60	Z60	X61	Y61	Z61

239	1.195	-169.93	1587.6	-20.917	-174.1	1590.3	78.677	-227.5	1319.6	29.336	-207.21	1185.3	34.784	-255.8	912.69	-81.864	-245.78	925.17	166.91	-304.19	1355.4	193.78	-327.77	1186.8	248.11	-322.62	897.74	313.07	-273.1	779.54	290.96	-296.54	714.93	338.82	-294.2	1371.7	-124.13	-291.97	1199.6	-191.15	-188.32	940.16	-236.33	-80.942	884.14	-205.14	-55.031	817.62	-236.36	-188.01	610.01	219.28	-175.88	714.72	221.84	-224.7	684.57	236.75	-120.98	200.56	153.96	-112.04	284.74	163.24	-331.7	747.81	-140.57	-369	583.87	-105.09	-296.75	658.51	-101.82	-351.46	665.47	-124.41	-407.24	445.6	-80.651	-391.6	343.29	-10.79	-433.62	260.01	-61.686	-420.46	262.47	-1.986	-262.72	761.04	255.54	-103.04	370.56	169.61	-77.531	50.624	182.99	-136.37	471.11	71.614	5.6909	74.307	149	-36.754	69.766	109.09	-157.18	112.06	86.458	-289.34	1043.8	-224.22	-160.03	287.42	200.79	-317.24	1536.2	-47.892	-128.92	477.73	196.46	-131.88	839.05	-217.69	-180.17	91.839	164.94	-224.02	63.063	114.06	-336.24	776.68	319.18	-351.73	1022.9	280.49	-414.67	1213.1	30.945	-417.96	1297.9	97.217	-421.38	964.1	100.33	-319.95	1545.6	95.296	-444.23	181.78	8.0269	-433.92	447.03	50.495	-427.02	970.51	0.86198	-332.65	25.497	13.917	-521.08	81.828	-28.665	-337.72	1423.3	27.423	-371.93	1016.8	205.37	-579.97	63.508	13.32	-306.36	1018.4	-155.56	-422.19	25.209	-37.321	-390.17	29.239	43.933	-505.39	102.12	50.435
240	1.2	-163.07	1587.1	-20.734	-167.31	1589.7	78.855	-220.32	1318.8	29.366	-200.19	1184.4	34.803	-249.53	911.98	-82.107	-238.15	924.36	166.76	-296.86	1354.7	193.85	-321.14	1186.2	248.24	-317.13	897.18	313.48	-268.14	778.75	291.54	-291.87	714.23	339.35	-286.98	1371.1	-123.97	-284.12	1199	-191.01	-178.3	940.94	-235.6	-70.458	886.36	-203.6	-43.184	820.2	-234.42	-181.82	608.8	219.22	-169.23	713.42	222.2	-218.19	683.43	236.97	-104.09	200.51	154.43	-98.374	285.03	163.51	-326.88	747.57	-140.61	-365.24	583.89	-105.08	-292.47	657.99	-102.08	-347.14	665.38	-124.49	-404.42	445.81	-80.568	-389.31	343.27	-10.813	-432.08	260.31	-61.666	-418.79	262.67	-1.9851	-255.7	760.05	256.07	-92.638	371.15	169.68	-54.9	52.052	183.48	-130.85	469.79	71.575	27.25	78.669	149.02	-15.101	72.59	109.38	-137.11	110.57	87.205	-280.64	1043.3	-224.27	-146.28	285.91	201.26	-310.23	1535.3	-47.823	-122.08	476.99	196.35	-120.61	840.51	-216.62	-159.09	89.542	165.81	-202.05	59.17	115.05	-331.29	776.19	319.68	-345.69	1022.5	280.73	-407.69	1212.5	31.17	-410.78	1297.3	97.355	-414.2	963.34	101.19	-313.05	1544.6	95.347	-443.02	182.15	8.0163	-430.57	447.34	50.685	-420.34	969.77	1.8117	-332.64	25.483	13.876	-520.7	82.722	-28.482	-330.47	1422.6	27.506	-365.75	1016.3	205.52	-579.66	64.827	13.597	-298.04	1017.7	-155.77	-422.28	25.27	-37.203	-390.07	29.201	43.922	-504.72	102.9	50.575
241	1.205	-156.19	1586.5	-20.552	-160.51	1589.1	79.033	-213.12	1317.9	29.4	-193.15	1183.4	34.828	-243.23	911.24	-82.334	-230.48	923.54	166.62	-289.49	1353.9	193.92	-314.4	1185.6	248.38	-311.54	896.58	313.9	-263.11	777.91	292.1	-287.12	713.51	339.88	-279.77	1370.5	-123.79	-276.28	1198.4	-190.86	-168.39	941.64	-234.86	-60.145	888.45	-202.08	-31.573	822.66	-232.51	-175.78	607.43	219.23	-162.64	711.95	222.5	-211.75	682.18	237.2	-87.506	200.66	154.91	-84.966	285.4	163.79	-321.99	747.31	-140.63	-361.37	583.9	-105.06	-288.11	657.47	-102.33	-342.74	665.26	-124.54	-401.46	446.01	-80.46	-386.91	343.22	-10.816	-430.46	260.61	-61.629	-417.03	262.85	-1.9651	-248.69	758.98	256.56	-82.44	371.72	169.76	-32.718	53.826	183.93	-125.49	468.24	71.512	48.28	83.288	148.98	6.0522	75.695	109.61	-117.38	109.42	87.936	-271.96	1042.9	-224.29	-132.75	284.54	201.72	-303.2	1534.4	-47.75	-115.38	476.12	196.24	-109.53	841.89	-215.52	-138.33	87.63	166.66	-180.37	55.708	116.04	-326.27	775.68	320.21	-339.55	1022	281	-400.7	1211.9	31.424	-403.57	1296.6	97.529	-406.98	962.55	102.06	-306.14	1543.6	95.405	-441.75	182.51	8.0162	-427.07	447.62	50.9	-413.61	968.97	2.7874	-332.62	25.466	13.84	-520.3	83.648	-28.303	-323.2	1421.9	27.606	-359.5	1015.7	205.72	-579.32	66.191	13.873	-289.73	1017.1	-155.93	-422.37	25.334	-37.083	-389.97	29.165	43.922	-504.01	103.7	50.717
242	1.21	-149.32	1586	-20.369	-153.7	1588.4	79.211	-205.91	1317.1	29.439	-186.08	1182.5	34.857	-236.9	910.48	-82.544	-222.77	922.71	166.49	-282.06	1353.1	194.01	-307.54	1184.9	248.55	-305.84	895.96	314.34	-258.01	777.03	292.67	-282.29	712.75	340.41	-272.56	1369.8	-123.59	-268.44	1197.9	-190.7	-158.6	942.27	-234.1	-50.001	890.4	-200.58	-20.202	824.98	-230.63	-169.86	605.91	219.33	-156.1	710.33	222.73	-205.36	680.84	237.46	-71.293	201	155.39	-71.846	285.85	164.06	-317.01	747.04	-140.62	-357.38	583.89	-105.03	-283.65	656.95	-102.58	-338.25	665.12	-124.58	-398.36	446.18	-80.33	-384.4	343.14	-10.8	-428.76	260.9	-61.575	-415.19	263.01	-1.9294	-241.68	757.87	257.02	-72.452	372.26	169.85	-11.066	55.903	184.35	-120.26	466.48	71.428	68.712	88.112	148.86	26.639	79.033	109.81	-98.069	108.58	88.641	-263.31	1042.4	-224.28	-119.46	283.3	202.16	-296.17	1533.4	-47.672	-108.79	475.14	196.13	-98.648	843.17	-214.41	-117.97	86.087	167.48	-159.08	52.668	117	-321.16	775.14	320.77	-333.29	1021.5	281.29	-393.69	1211.2	31.708	-396.33	1295.9	97.738	-399.72	961.71	102.97	-299.21	1542.6	95.473	-440.43	182.86	8.0232	-423.42	447.87	51.14	-406.85	968.14	3.7872	-332.59	25.445	13.809	-519.87	84.609	-28.131	-315.92	1421.1	27.726	-353.17	1015.1	205.95	-578.97	67.603	14.143	-281.45	1016.4	-156.04	-422.44	25.402	-36.964	-389.85	29.133	43.935	-503.27	104.51	50.859
